<svg xmlns="http://www.w3.org/2000/svg" viewBox="0 0 24 24"><title>Internet</title><g id="Internet"><path d="M12,0A12,12,0,0,0,2.74,19.64C9.91,28.29,24,23.21,24,12A12,12,0,0,0,12,0Zm8.39,17.44A11.82,11.82,0,0,0,16.83,15a27.47,27.47,0,0,0,0-6.08,11.82,11.82,0,0,0,3.56-2.4A10,10,0,0,1,20.39,17.44Zm-4.78,3.87c-1,.4.16.2.95-4.21A10,10,0,0,1,19.14,19,9.81,9.81,0,0,1,15.61,21.31ZM11.93,22c-.75-.1-2-1.94-2.58-5.65a10.35,10.35,0,0,1,5.3,0C14.41,17.83,13.43,22,11.93,22Zm-3.54-.69A9.9,9.9,0,0,1,4.86,19,10,10,0,0,1,7.44,17.1C8.25,21.61,9.46,21.73,8.39,21.31Zm0-18.64c.86-.33-.25,0-1,4.23A10,10,0,0,1,4.86,5,9.79,9.79,0,0,1,8.44,2.67Zm7.12,0A9.87,9.87,0,0,1,19.14,5,10,10,0,0,1,16.56,6.9C15.76,2.44,14.59,2.29,15.56,2.67ZM9.11,14.36a25.66,25.66,0,0,1,0-4.72,11.78,11.78,0,0,0,5.78,0,24.81,24.81,0,0,1,0,4.72A12.28,12.28,0,0,0,9.11,14.36ZM11.91,2c1.51,0,2.5,4.16,2.74,5.65a10.35,10.35,0,0,1-5.3,0C10,4,11.17,2.12,11.91,2ZM3.61,6.56A11.82,11.82,0,0,0,7.17,9a27.47,27.47,0,0,0,0,6.08,11.82,11.82,0,0,0-3.56,2.4A10,10,0,0,1,3.61,6.56Z"/></g></svg>